<?xml version="1.0" standalone="no"?>
<!DOCTYPE svg PUBLIC "-//W3C//DTD SVG 20010904//EN"
 "http://www.w3.org/TR/2001/REC-SVG-20010904/DTD/svg10.dtd">
<svg version="1.0" xmlns="http://www.w3.org/2000/svg"
 width="577.000000pt" height="577.000000pt" viewBox="0 0 577.000000 577.000000"
 preserveAspectRatio="xMidYMid meet">
<metadata>
Created by potrace 1.14, written by Peter Selinger 2001-2017
</metadata>
<g transform="translate(0.000000,577.000000) scale(0.100000,-0.100000)"
fill="#000000" stroke="none">
<path d="M2417 3863 c-21 -24 -22 -53 -3 -79 12 -16 28 -19 108 -21 51 0 108
-2 125 -2 64 -2 85 -92 25 -108 -15 -4 -30 -7 -33 -8 -15 -1 -39 -36 -39 -58
0 -38 33 -61 88 -60 60 2 92 -18 92 -56 0 -52 -21 -58 -207 -60 -59 -1 -83
-18 -83 -60 0 -53 13 -56 259 -57 265 0 278 -4 271 -69 -4 -42 -16 -44 -238
-47 -198 -3 -215 -4 -228 -22 -19 -27 -18 -60 4 -79 15 -14 40 -17 118 -17
107 0 137 -10 147 -51 4 -14 -2 -29 -17 -44 -20 -20 -33 -23 -125 -23 -61 -1
-109 -6 -117 -13 -8 -6 -18 -29 -24 -50 -7 -25 -18 -40 -33 -45 -12 -5 -93 -8
-180 -9 -155 0 -159 -1 -177 -24 -19 -26 -20 -37 -5 -62 17 -28 48 -36 143
-34 99 1 121 -8 125 -54 1 -12 11 -30 22 -41 19 -18 39 -19 318 -21 289 -2
299 -3 313 -23 7 -11 14 -30 14 -42 0 -46 -15 -49 -303 -50 -269 0 -270 0
-288 -23 -24 -29 -24 -43 -1 -72 17 -20 28 -22 112 -24 84 -2 95 -4 112 -25
20 -25 16 -57 -10 -77 -9 -7 -40 -13 -69 -13 -60 0 -93 -23 -93 -64 0 -40 35
-56 117 -56 52 0 76 -4 87 -16 9 -8 16 -18 17 -22 6 -52 25 -73 70 -78 54 -7
69 -14 75 -39 8 -34 -3 -63 -29 -71 -12 -4 -84 -8 -159 -9 -118 -1 -140 -4
-158 -20 -32 -29 -25 -72 15 -91 12 -6 196 -10 444 -9 421 1 424 1 441 23 10
12 21 41 24 65 8 52 52 110 106 137 27 14 67 21 127 25 49 2 104 11 123 20 76
34 106 127 76 241 -21 81 -20 106 4 137 26 33 25 45 -6 78 l-26 27 33 41 32
41 -27 54 c-34 67 -29 89 23 105 47 14 65 33 58 64 -4 12 -54 69 -111 127
-109 108 -121 128 -130 215 -7 66 -30 153 -50 190 -9 17 -16 35 -16 41 0 6
-25 51 -56 100 -91 146 -222 259 -372 320 -136 55 -155 57 -507 62 -315 3
-331 3 -348 -15z"/>
<path d="M2286 3626 c-28 -27 -25 -58 7 -81 57 -40 122 5 97 65 -7 17 -15 30
-19 31 -3 0 -18 3 -34 5 -19 3 -34 -2 -51 -20z"/>
<path d="M2055 3167 c-41 -22 -46 -56 -15 -87 19 -19 32 -21 185 -20 156 2
166 3 180 23 20 29 19 53 -4 76 -17 17 -35 19 -173 19 -91 0 -162 -4 -173 -11z"/>
<path d="M1701 3028 c-26 -23 -27 -49 -3 -77 15 -20 27 -22 117 -23 56 -1 108
3 116 8 37 21 41 79 7 100 -7 4 -59 9 -115 10 -88 1 -105 -1 -122 -18z"/>
<path d="M1904 2807 c-22 -19 -25 -28 -20 -54 15 -69 125 -58 126 13 0 53 -63
78 -106 41z"/>
<path d="M2303 2472 c-30 -5 -51 -36 -45 -67 5 -29 20 -43 53 -49 45 -7 87 34
74 74 -8 25 -52 47 -82 42z"/>
<path d="M2088 1988 c-26 -26 -23 -64 7 -84 20 -13 52 -16 176 -15 83 1 160 6
170 11 29 16 34 49 11 79 l-19 26 -163 1 c-146 0 -165 -1 -182 -18z"/>
</g>
</svg>
